Coordinates
version=1
nRows=13
nColumns=63
inDegrees=yes

Units are S.I. units (second, meters, Newtons, ...)
If the header above contains a line with 'inDegrees', this indicates whether rotational values are in degrees (yes) or radians (no).

endheader
time	pelvis_tilt	pelvis_list	pelvis_rotation	pelvis_tx	pelvis_ty	pelvis_tz	hip_flexion_r	hip_adduction_r	hip_rotation_r	knee_angle_r	knee_angle_r_beta	ankle_angle_r	subtalar_angle_r	mtp_angle_r	hip_flexion_l	hip_adduction_l	hip_rotation_l	knee_angle_l	knee_angle_l_beta	ankle_angle_l	subtalar_angle_l	mtp_angle_l	L5_S1_Flex_Ext	L5_S1_Lat_Bending	L5_S1_axial_rotation	L4_L5_Flex_Ext	L4_L5_Lat_Bending	L4_L5_axial_rotation	L3_L4_Flex_Ext	L3_L4_Lat_Bending	L3_L4_axial_rotation	L2_L3_Flex_Ext	L2_L3_Lat_Bending	L2_L3_axial_rotation	L1_L2_Flex_Ext	L1_L2_Lat_Bending	L1_L2_axial_rotation	L1_T12_Flex_Ext	L1_T12_Lat_Bending	L1_T12_axial_rotation	Abs_r3	Abs_r2	Abs_r1	Abs_t1	Abs_t2	neck_flexion	neck_bending	neck_rotation	arm_flex_r	arm_add_r	arm_rot_r	elbow_flex_r	pro_sup_r	wrist_flex_r	wrist_dev_r	arm_flex_l	arm_add_l	arm_rot_l	elbow_flex_l	pro_sup_l	wrist_flex_l	wrist_dev_l
1.326923	-1.646828	3.669969	89.798523	0.223559	1.004178	0.495896	2.287995	-1.084046	5.026596	21.199902	0.370008	24.152814	-9.478748	0.000000	2.154748	0.692326	-10.376572	20.881768	0.364456	28.500089	-5.489503	0.000000	0.128151	-0.162107	2.009137	0.237989	-0.215602	2.134708	0.210539	-0.394146	2.134708	0.146463	-0.394146	1.757995	0.119001	-0.330568	1.632424	0.073225	-0.251103	1.506853	0.915367	-1.833781	11.174218	0.000000	0.000000	10.850130	2.383588	-9.889022	24.752005	0.078409	-13.811697	130.644276	88.774244	-7.398449	6.973298	37.684248	1.479659	13.112169	124.405799	89.219778	-20.809779	-15.410238
1.346154	-1.881348	3.650423	89.632714	0.224339	1.004149	0.496246	2.375686	-1.302466	5.144894	21.229505	0.370525	24.258423	-9.638863	0.000000	2.117008	0.900791	-10.623851	20.722387	0.361674	28.392853	-5.193252	0.000000	0.130533	-0.190032	2.004278	0.242413	-0.252743	2.129546	0.214453	-0.462045	2.129546	0.149187	-0.462045	1.753743	0.121213	-0.387514	1.628476	0.074587	-0.294360	1.503209	0.932387	-2.149684	11.147194	0.000000	0.000000	10.689772	2.324197	-9.665040	26.914591	0.962840	-12.701420	128.533054	88.916764	-9.065530	4.054280	40.714002	1.064756	13.603450	122.956664	89.349224	-22.910636	-18.175694
1.365385	-2.104682	3.633533	89.592312	0.224760	1.004488	0.496861	2.419202	-1.542775	5.037169	21.172721	0.369534	24.253179	-9.685019	0.000000	2.007554	1.106754	-10.938015	20.366553	0.355463	28.227323	-4.575293	0.000000	0.126249	-0.217746	1.992344	0.234457	-0.289603	2.116865	0.207415	-0.529428	2.116865	0.144290	-0.529428	1.743301	0.117235	-0.444028	1.618779	0.072139	-0.337289	1.494258	0.901785	-2.463189	11.080819	0.000000	0.000000	10.585544	2.188092	-9.737212	29.282716	1.332918	-12.046137	126.775354	89.024359	-10.342092	2.104336	43.809111	0.666986	14.073391	121.641476	89.418948	-24.971873	-20.785330
1.384615	-2.308615	3.629760	89.690053	0.224790	1.005190	0.497749	2.397399	-1.796703	4.693617	21.022538	0.366912	24.119703	-9.590736	0.000000	1.833631	1.293947	-11.343550	19.856290	0.346558	28.030215	-3.592586	0.000000	0.116463	-0.243149	1.966612	0.216284	-0.323388	2.089525	0.191337	-0.591192	2.089525	0.133106	-0.591192	1.720786	0.108148	-0.495829	1.597872	0.066547	-0.376638	1.474959	0.831885	-2.750550	10.937706	0.000000	0.000000	10.466942	1.977437	-10.038993	31.785950	1.229246	-11.658841	125.333755	89.086079	-11.304813	0.956783	46.942295	0.299796	14.480888	120.481325	89.420733	-26.807319	-22.902934
1.403846	-2.487981	3.668583	89.932344	0.224424	1.006258	0.498927	2.282747	-2.057318	4.092565	20.796174	0.362962	23.855315	-9.321216	0.000000	1.566701	1.455706	-11.812417	19.195222	0.335020	27.794591	-2.277092	0.000000	0.096962	-0.265436	1.919029	0.180067	-0.353031	2.038968	0.159298	-0.645382	2.038968	0.110817	-0.645382	1.679150	0.090039	-0.541278	1.559211	0.055404	-0.411161	1.439272	0.692587	-3.002671	10.673062	0.000000	0.000000	10.357512	1.734536	-10.574450	34.430248	0.695441	-11.351023	124.141405	89.090343	-12.085668	0.539191	50.090275	0.023042	14.723254	119.488096	89.369390	-28.019693	-24.014806
1.423077	-2.607392	3.758110	90.318299	0.223592	1.007655	0.500334	2.068513	-2.282244	3.300051	20.502605	0.357838	23.442462	-8.968339	0.000000	1.187150	1.562896	-12.303574	18.366203	0.320551	27.538835	-0.652288	0.000000	0.070497	-0.280289	1.862496	0.130920	-0.372785	1.978902	0.115820	-0.681496	1.978902	0.080571	-0.681496	1.629684	0.065464	-0.571566	1.513278	0.040282	-0.434168	1.396872	0.503554	-3.170691	10.358643	0.000000	0.000000	10.225222	1.443193	-11.446385	37.137206	-0.272948	-11.171934	123.219335	89.047692	-12.454032	1.025196	53.264034	-0.045851	14.925534	118.409449	89.269284	-28.789146	-24.310547
1.442308	-2.679782	3.904596	90.778204	0.222434	1.009299	0.501981	1.764215	-2.465793	2.435218	20.158755	0.351837	22.914800	-8.579668	0.000000	0.719524	1.637663	-12.752045	17.436764	0.304329	27.236871	1.029665	0.000000	0.038810	-0.285366	1.770466	0.072074	-0.379537	1.881121	0.063761	-0.693840	1.881121	0.044356	-0.693840	1.549158	0.036039	-0.581919	1.438504	0.022176	-0.442032	1.327850	0.277216	-3.228121	9.846803	0.000000	0.000000	9.994564	1.171777	-12.197023	40.075685	-1.456446	-10.686016	122.312302	88.995364	-12.771737	2.195455	56.436319	-0.004685	14.875544	117.198959	89.200783	-28.799211	-23.389493
1.461538	-2.698471	4.113617	91.307236	0.220979	1.011123	0.503778	1.354732	-2.605226	1.465058	19.748703	0.344680	22.338892	-8.078937	0.000000	0.157644	1.672192	-13.160625	16.423665	0.286647	26.899146	2.767953	0.000000	0.003405	-0.280870	1.645550	0.006324	-0.373557	1.748397	0.005594	-0.682907	1.748397	0.003892	-0.682907	1.439856	0.003162	-0.572750	1.337009	0.001946	-0.435067	1.234162	0.024322	-3.177254	9.152054	0.000000	0.000000	9.676375	1.029073	-12.786162	43.158415	-2.725913	-9.966412	121.329091	88.937205	-13.047229	3.823446	59.653736	0.133924	14.716525	115.657551	89.149778	-28.082443	-21.232739
1.480769	-2.650162	4.380275	91.861836	0.219311	1.013045	0.505687	0.862805	-2.677965	0.474693	19.286183	0.336607	21.762539	-7.515344	0.000000	-0.483585	1.649612	-13.553166	15.361770	0.268113	26.537604	4.521457	0.000000	-0.034508	-0.265325	1.496075	-0.064085	-0.352883	1.589579	-0.056694	-0.645112	1.589579	-0.039439	-0.645112	1.309065	-0.032044	-0.541052	1.215561	-0.019718	-0.410989	1.122056	-0.246489	-3.001414	8.320719	0.000000	0.000000	9.289193	0.995753	-13.197800	46.324205	-4.001032	-9.006977	120.163291	88.889580	-13.265368	5.489999	62.911546	0.324764	14.557631	113.727846	89.115433	-26.696243	-17.988102
1.500000	-2.532421	4.700831	92.377194	0.217540	1.014993	0.507671	0.306177	-2.689281	-0.541712	18.781283	0.327795	21.259237	-6.764893	0.000000	-1.195046	1.567824	-13.973510	14.281962	0.249267	26.165727	6.254108	0.000000	-0.075270	-0.238497	1.339866	-0.139785	-0.317201	1.423607	-0.123662	-0.579882	1.423607	-0.086027	-0.579882	1.172383	-0.069896	-0.486343	1.088641	-0.043010	-0.369432	1.004899	-0.537649	-2.697927	7.451932	0.000000	0.000000	8.876281	1.079224	-13.392452	49.525233	-5.228384	-7.814755	118.713877	88.857596	-13.485983	6.623937	66.159241	0.540734	14.459253	111.498667	89.095304	-24.723193	-13.871620
1.519231	-2.368897	5.037476	92.852372	0.215762	1.016890	0.509637	-0.284012	-2.649836	-1.526688	18.222514	0.318043	20.843817	-5.907742	0.000000	-1.933425	1.447410	-14.414008	13.208153	0.230526	25.772907	7.941610	0.000000	-0.113413	-0.205420	1.186700	-0.210619	-0.273208	1.260868	-0.186326	-0.499458	1.260868	-0.129620	-0.499458	1.038362	-0.105315	-0.418892	0.964193	-0.064804	-0.318195	0.890025	-0.810097	-2.323749	6.600067	0.000000	0.000000	8.471885	1.345200	-13.389289	52.693992	-6.385755	-6.449004	117.011473	88.859017	-13.888780	7.009253	69.361512	0.760367	14.492167	109.121782	89.087453	-22.331641	-9.197823
1.538462	-2.148007	5.377009	93.252162	0.214046	1.018648	0.511573	-0.869234	-2.550104	-2.465465	17.647777	0.308012	20.536269	-4.924770	0.000000	-2.663569	1.276286	-14.867972	12.188794	0.212735	25.392559	9.516356	0.000000	-0.149660	-0.165354	1.061065	-0.277934	-0.219920	1.127381	-0.245877	-0.402041	1.127381	-0.171047	-0.402041	0.928432	-0.138975	-0.337189	0.862115	-0.085516	-0.256133	0.795799	-1.069009	-1.870514	5.901324	0.000000	0.000000	8.131745	1.648918	-13.377877	55.843679	-7.529831	-5.023567	115.150652	88.870598	-14.336487	6.803796	72.538504	1.006431	14.711332	106.658993	89.086318	-19.962747	-4.652931
1.557692	-1.913677	5.691199	93.583478	0.212510	1.020207	0.513373	-1.426016	-2.428869	-3.373750	17.062743	0.297801	20.331195	-3.817785	0.000000	-3.352274	1.094226	-15.300816	11.240081	0.196176	25.019126	10.958267	0.000000	-0.181857	-0.125686	0.955824	-0.337727	-0.167163	1.015563	-0.298773	-0.305593	1.015563	-0.207845	-0.305593	0.836346	-0.168873	-0.256299	0.776607	-0.103913	-0.194688	0.716868	-1.298987	-1.421787	5.316006	0.000000	0.000000	7.882578	2.087886	-13.272620	58.960440	-8.569864	-3.586540	113.112575	88.888562	-14.946130	5.736999	75.676489	1.221774	14.931097	104.345300	89.091720	-17.216804	-0.030072
